<?xml version="1.0" encoding="utf-8"?>
<!-- Generator: Adobe Illustrator 20.1.0, SVG Export Plug-In . SVG Version: 6.00 Build 0)  -->
<svg version="1.1" id="Layer_1" xmlns="http://www.w3.org/2000/svg" xmlns:xlink="http://www.w3.org/1999/xlink" x="0px" y="0px"
	 viewBox="0 0 792 1224" style="enable-background:new 0 0 792 1224;" xml:space="preserve">
<style type="text/css">
	.st0{fill:#006838;}
	.st1{fill:#ED1C24;}
	.st2{fill:#BE1E2D;}
	.st3{fill:#DFDFDF;}
	.st4{fill:#0E013D;}
</style>
<g>
	<g>
		<g>
			<g>
				<path class="st0" d="M396.5,581.5L175.7,277.4c67.1-48.8,137.9-71.9,220.9-71.9V581.5z"/>
			</g>
		</g>
		<g>
			<g>
				<path class="st1" d="M396.5,581.5L38.8,465.6c25.7-78.9,69.3-139,136.5-187.8L396.5,581.5z"/>
			</g>
		</g>
		<g>
			<g>
				<path class="st2" d="M396.5,581.5L92.4,802.4C19,701.5,0.7,583.7,38.8,465.2L396.5,581.5z"/>
			</g>
		</g>
		<g>
			<g>
				<path class="st3" d="M396.5,581.5L280.2,939.2c-78.9-25.7-139-69.3-187.8-136.5L396.5,581.5z"/>
			</g>
		</g>
		<g>
			<g>
				<path class="st4" d="M396.5,581.5V205.9c207.6,0,376,168.4,376,376s-168.4,376-376,376c-41.5,0-76.7-5.5-116.3-18.3L396.5,581.5
					z"/>
			</g>
		</g>
	</g>
</g>
</svg>
