<?xml version="1.0" encoding="utf-8"?>
<!-- Generator: Adobe Illustrator 16.0.4, SVG Export Plug-In . SVG Version: 6.00 Build 0)  -->
<!DOCTYPE svg PUBLIC "-//W3C//DTD SVG 1.1//EN" "http://www.w3.org/Graphics/SVG/1.1/DTD/svg11.dtd" [
	<!ENTITY ns_flows "http://ns.adobe.com/Flows/1.0/">
	<!ENTITY ns_extend "http://ns.adobe.com/Extensibility/1.0/">
	<!ENTITY ns_ai "http://ns.adobe.com/AdobeIllustrator/10.0/">
	<!ENTITY ns_graphs "http://ns.adobe.com/Graphs/1.0/">
]>
<svg version="1.1" id="Layer_1" xmlns:x="&ns_extend;" xmlns:i="&ns_ai;" xmlns:graph="&ns_graphs;"
	 xmlns="http://www.w3.org/2000/svg" xmlns:xlink="http://www.w3.org/1999/xlink" xmlns:a="http://ns.adobe.com/AdobeSVGViewerExtensions/3.0/"
	 x="0px" y="0px" width="612px" height="792px" viewBox="0 0 612 792" enable-background="new 0 0 612 792" xml:space="preserve">
<path d="M281.821,383.969c-3.121-2.146-6.633-3.122-12.924-3.122c-1.033,0-2.255,0.036-3.524,0.107
	c-0.102-0.033-0.224-0.052-0.375-0.052h-8.048c-0.555,0-0.971-0.139-0.971,0.485c0,0.902,1.318,0.902,1.943,0.902
	c3.746,0,3.053,2.637,3.053,5.551v13.251c0,1.943,0.276,3.538-1.18,5.136c-1.943,2.149-4.44,3.121-7.424,3.121
	c-2.567,0-5.55-0.902-6.938-3.191c-1.248-2.012-1.248-5.481-1.248-7.771v-12.157c0.03-1.641,0.078-3.196-1.396-4.425
	c-1.595-1.456-4.163-1.803-6.313-1.803c-4.441,0-9.158,1.873-12.419,4.787c-1.318,1.11-2.914,3.122-2.914,4.926
	c0,0.694,0.347,0.832,0.902,0.832c0.832,0,2.289-0.554,2.983-0.902c1.11-0.485,1.457-1.456,1.942-2.497
	c1.596-3.538,3.747-5.828,7.979-5.828c4.302,0,4.441,2.844,4.441,6.244v3.053c0,2.636-0.07,2.706-2.567,3.885l-5.343,2.498
	c-3.816,1.873-10.268,4.787-10.268,9.713c0,3.469,3.261,5.48,6.522,5.48c4.478,0,8.116-2.901,9.951-4.399
	c0.638-0.521,0.994-0.925,1.045-1.052c0,0,0.188-0.411-0.253-0.664s-0.822,0.15-0.822,0.15c-1.665,1.664-4.024,2.773-6.452,2.773
	c-2.567,0-4.787-1.387-4.787-4.093c0-3.33,2.705-5.134,5.411-6.522l6.314-3.191c0.208-0.07,0.555-0.278,0.763-0.278
	c0.323,0,0.449,0.362,0.493,0.775v1.003c-0.004,0.073-0.007,0.13-0.007,0.165v4.163l0.025,0.049
	c0.072,2.521,0.425,4.998,2.064,7.098c2.012,2.637,4.787,4.023,8.187,4.023c6.313,0,9.574-4.856,10.614-4.856
	c0.903,0,0.556,2.498,0.556,2.845v1.665c0,0.347,0,0.556,0.347,0.556c0.207,0,0.638-0.324,0.763-0.416
	c1.297-0.952,1.376-1.385,3.366-1.789c0.593-0.119,1.089,0.009,1.553-0.154c0.572-0.2,1.027-0.689,0.738-0.795
	c-2.286-0.838-1.842-3.506-1.842-6.212V384.82c0.131-1.877,0.731-2.705,3.185-2.705c10.339,0,13.606,8.729,13.606,14.29
	c0,6.618-4.138,11.938-9.353,13.401l-0.53,0.108c-0.976,0.049-1.708,0.099-1.708,0.829c0,0.683,0.634,0.683,0.975,0.683l0.033-0.001
	c12.729,0,16.339-10.095,16.339-15.313C288.308,391.382,285.82,386.7,281.821,383.969"/>
<g>
	<rect x="293.058" y="380" width="0.5" height="32.92"/>
</g>
<g>
	<path d="M299.589,394.202l1.824,5.583h-0.736l-0.448-1.455h-2.128l-0.448,1.455h-0.704l1.872-5.583H299.589z M300.045,397.722
		l-0.856-2.784h-0.016l-0.88,2.784H300.045z"/>
	<path d="M302.093,394.202h1.088l1.4,4.44h0.016l1.432-4.44h1.056v5.583h-0.671v-4.815h-0.016l-1.584,4.815H304.3l-1.52-4.815
		h-0.016v4.815h-0.672V394.202z"/>
	<path d="M308.316,394.202h2.6v0.608h-1.896v1.776h1.808v0.608h-1.808v1.984h2v0.607h-2.704V394.202z"/>
	<path d="M312.021,394.202h1.432c0.592,0,0.92,0.144,1.176,0.384c0.287,0.272,0.416,0.656,0.416,1.064
		c0,0.592-0.28,1.16-1.104,1.336v0.016c0.336,0.063,0.495,0.224,0.607,0.544l0.783,2.239h-0.76l-0.64-1.888
		c-0.159-0.464-0.36-0.64-0.888-0.64h-0.32v2.527h-0.703V394.202z M312.725,396.682h0.544c0.752,0,1.04-0.496,1.04-0.984
		c0-0.624-0.408-0.92-1.023-0.92h-0.561V396.682z"/>
	<path d="M316.173,394.202h0.704v5.583h-0.704V394.202z"/>
	<path d="M321.404,399.674c-0.336,0.104-0.688,0.168-1.016,0.168c-1.768,0-2.512-1.344-2.512-2.856c0-1.744,1.016-2.84,2.472-2.84
		c0.399,0,0.8,0.072,1.056,0.2v0.688c-0.304-0.192-0.656-0.28-1.048-0.28c-0.911,0-1.743,0.728-1.743,2.088
		c0,1.439,0.575,2.392,1.791,2.392c0.36,0,0.713-0.096,1-0.264V399.674z"/>
	<path d="M324.492,394.202l1.824,5.583h-0.736l-0.447-1.455h-2.129l-0.447,1.455h-0.704l1.872-5.583H324.492z M324.949,397.722
		l-0.856-2.784h-0.017l-0.879,2.784H324.949z"/>
	<path d="M326.996,394.202h0.872l2.104,4.608h0.016v-4.608h0.672v5.583h-0.872l-2.104-4.576h-0.017v4.576h-0.672V394.202z"/>
	<path d="M337.316,397.729c0,0.552-0.032,0.856-0.225,1.248c-0.231,0.464-0.72,0.864-1.527,0.864c-0.809,0-1.297-0.4-1.528-0.864
		c-0.192-0.392-0.224-0.696-0.224-1.248v-3.528h0.703v3.632c0,0.871,0.385,1.432,1.049,1.432s1.048-0.561,1.048-1.432v-3.632h0.704
		V397.729z"/>
	<path d="M338.549,394.202h0.871l2.104,4.608h0.017v-4.608h0.672v5.583h-0.872l-2.104-4.576h-0.016v4.576h-0.672V394.202z"/>
	<path d="M343.444,394.202h0.704v5.583h-0.704V394.202z"/>
	<path d="M344.836,394.202h0.768l1.297,4.552h0.016l1.368-4.552h0.704l-1.752,5.583h-0.704L344.836,394.202z"/>
	<path d="M349.676,394.202h2.6v0.608h-1.896v1.776h1.808v0.608h-1.808v1.984h2v0.607h-2.704V394.202z"/>
	<path d="M353.381,394.202h1.432c0.592,0,0.92,0.144,1.176,0.384c0.287,0.272,0.416,0.656,0.416,1.064
		c0,0.592-0.28,1.16-1.104,1.336v0.016c0.336,0.063,0.495,0.224,0.607,0.544l0.783,2.239h-0.76l-0.64-1.888
		c-0.159-0.464-0.36-0.64-0.888-0.64h-0.32v2.527h-0.703V394.202z M354.084,396.682h0.544c0.752,0,1.04-0.496,1.04-0.984
		c0-0.624-0.408-0.92-1.023-0.92h-0.561V396.682z"/>
	<path d="M359.836,395.01c-0.264-0.16-0.607-0.256-0.952-0.256c-0.528,0-0.872,0.36-0.872,0.832c0,0.36,0.145,0.584,0.944,1.048
		c0.864,0.496,1.151,0.983,1.151,1.624c0,0.888-0.551,1.584-1.623,1.584c-0.448,0-0.873-0.096-1.168-0.24v-0.729
		c0.32,0.192,0.735,0.36,1.063,0.36c0.632,0,0.992-0.424,0.992-0.88c0-0.432-0.112-0.68-0.864-1.136
		c-1.008-0.608-1.232-0.952-1.232-1.672c0-0.92,0.705-1.4,1.553-1.4c0.367,0,0.76,0.08,1.008,0.184V395.01z"/>
	<path d="M361.084,394.202h0.703v5.583h-0.703V394.202z"/>
	<path d="M363.828,394.81h-1.28v-0.608h3.264v0.608h-1.28v4.976h-0.703V394.81z"/>
	<path d="M367.676,397.441l-1.672-3.24h0.8l1.231,2.472l1.24-2.472h0.776l-1.673,3.24v2.344h-0.703V397.441z"/>
	<path d="M372.556,394.202h1.216c0.744,0,1.168,0.176,1.488,0.4c0.496,0.344,1.031,1.048,1.031,2.304
		c0,1.616-0.768,2.879-2.863,2.879h-0.872V394.202z M373.26,399.178h0.424c1.232,0,1.872-0.84,1.872-2.272
		c0-1.168-0.496-2.096-1.872-2.096h-0.424V399.178z"/>
	<path d="M377.228,394.202h2.6v0.608h-1.896v1.776h1.808v0.608h-1.808v1.984h2v0.607h-2.704V394.202z"/>
	<path d="M383.235,395.01c-0.265-0.16-0.608-0.256-0.952-0.256c-0.527,0-0.871,0.36-0.871,0.832c0,0.36,0.143,0.584,0.943,1.048
		c0.863,0.496,1.152,0.983,1.152,1.624c0,0.888-0.553,1.584-1.625,1.584c-0.447,0-0.871-0.096-1.168-0.24v-0.729
		c0.32,0.192,0.736,0.36,1.064,0.36c0.633,0,0.992-0.424,0.992-0.88c0-0.432-0.112-0.68-0.864-1.136
		c-1.008-0.608-1.231-0.952-1.231-1.672c0-0.92,0.703-1.4,1.552-1.4c0.368,0,0.76,0.08,1.008,0.184V395.01z"/>
	<path d="M384.483,394.202h0.704v5.583h-0.704V394.202z"/>
	<path d="M390.083,399.554c-0.327,0.12-0.888,0.288-1.384,0.288c-1.768,0-2.512-1.344-2.512-2.856c0-1.744,1.016-2.84,2.472-2.84
		c0.479,0,0.929,0.064,1.312,0.248v0.704c-0.424-0.216-0.896-0.344-1.304-0.344c-0.911,0-1.743,0.728-1.743,2.088
		c0,1.439,0.575,2.392,1.791,2.392c0.225,0,0.512-0.056,0.696-0.151v-1.76h-0.937v-0.608h1.608V399.554z"/>
	<path d="M391.315,394.202h0.872l2.104,4.608h0.016v-4.608h0.672v5.583h-0.871l-2.104-4.576h-0.017v4.576h-0.672V394.202z"/>
</g>
</svg>
